HIERARCHY
ROOT Hips
{
  OFFSET 1.44925e-005 102.336 -0.101585
  CHANNELS 6 Xposition Yposition Zposition Zrotation Xrotation Yrotation
  JOINT RightUpLeg
  {
    OFFSET -8.9458 -8.66707 0.101652
    CHANNELS 3 Zrotation Xrotation Yrotation
    JOINT RightLeg
    {
      OFFSET 0 -44.4227 1.3727
      CHANNELS 3 Zrotation Xrotation Yrotation
      JOINT RightFoot
      {
        OFFSET 0.253549 -42.0924 -1.46059
        CHANNELS 3 Zrotation Xrotation Yrotation
        JOINT RightToes
        {
          OFFSET 0.04 -4.41509 8.4991
          CHANNELS 3 Zrotation Xrotation Yrotation
          End Site
          {
            OFFSET -0.08 -0.137448 9.77979
          }
        }
      }
    }
  }
  JOINT Spine
  {
    OFFSET 0 11.8905 0
    CHANNELS 3 Zrotation Xrotation Yrotation
    JOINT Spine1
    {
      OFFSET 0 25.6574 0.127663
      CHANNELS 3 Zrotation Xrotation Yrotation
      JOINT HEad
      {
        OFFSET 0 8.73416 0.011341
        CHANNELS 3 Zrotation Xrotation Yrotation
        End Site
        {
          OFFSET -0.29 12.7742 2.51395
        }
      }
      JOINT LeftShoulder1
      {
        OFFSET 8.99 -0.362252 -0.22
        CHANNELS 3 Zrotation Xrotation Yrotation
        JOINT LeftArm
        {
          OFFSET 10.2827 -0.00337999 0.322123
          CHANNELS 3 Zrotation Xrotation Yrotation
          JOINT LeftForeArm
          {
            OFFSET 26.2597 0.099144 -1.42434
            CHANNELS 3 Zrotation Xrotation Yrotation
            JOINT LeftHand
            {
              OFFSET 22.0902 0.085362 1.02216
              CHANNELS 3 Zrotation Xrotation Yrotation
              End Site
              {
                OFFSET 13.419 -0.6 1.50291
              }
            }
          }
        }
      }
      JOINT RightShoulder
      {
        OFFSET -8.99 -0.362252 -0.22
        CHANNELS 3 Zrotation Xrotation Yrotation
        JOINT RightArm
        {
          OFFSET -10.2827 -0.00338 0.322123
          CHANNELS 3 Zrotation Xrotation Yrotation
          JOINT RightForeArm
          {
            OFFSET -26.364 0.099144 -1.42434
            CHANNELS 3 Zrotation Xrotation Yrotation
            JOINT RightHand
            {
              OFFSET -22.0324 0.085362 1.02216
              CHANNELS 3 Zrotation Xrotation Yrotation
              End Site
              {
                OFFSET -13.3284 -0.6 1.50291
              }
            }
          }
        }
      }
    }
  }
  JOINT LeftUpLeg
  {
    OFFSET 8.9458 -8.66707 0.101652
    CHANNELS 3 Zrotation Xrotation Yrotation
    JOINT LeftLeg
    {
      OFFSET 0 -44.4227 1.3727
      CHANNELS 3 Zrotation Xrotation Yrotation
      JOINT LeftFoot
      {
        OFFSET -0.253549 -42.0924 -1.46059
        CHANNELS 3 Zrotation Xrotation Yrotation
        JOINT LeftToes
        {
          OFFSET -0.04 -4.41509 8.4991
          CHANNELS 3 Zrotation Xrotation Yrotation
          End Site
          {
            OFFSET 0.08 -0.047448 9.77979
          }
        }
      }
    }
  }
}
MOTION
Frames:	10
Frame Time:	0.0333333
-33.6269 95.2654 78.1491 -0.848055 1.34147 -150.485 -28.2595 -21.0934 -47.329 -1.41414 57.281 -11.9898 5.86582 -21.6341 0.471321 0.0462048 0.000530889 0.662642 13.2752 26.2077 -3.68013 -6.34302 2.39763 -0.0566189 1.62767 -22.7865 -27.4018 -22.2145 2.7652 -6.15827 -51.717 14.1982 -46.5435 -30.1955 -8.78633 -38.2976 8.72802 8.34948 -17.2815 27.7759 4.98199 10.4974 34.2957 -1.05895 27.1997 -3.70078 25.018 68.154 -25.1601 10.5118 -8.35718 13.4699 -38.9194 1.61409 0.0622246 28.9091 -6.89167 -3.18679 -6.96424 -0.00125275 -1.29642e-009 8.75234e-006 -1.46973e-008 
-31.8361 97.0444 79.5977 -0.968456 0.373512 -147.222 -27.4574 -20.1074 -49.6081 -1.31201 52.7274 -13.068 5.29536 -19.5527 0.313268 0.0462048 0.000530889 0.662642 12.9959 27.0085 -3.17112 -7.01078 1.14471 0.566131 2.36898 -21.146 -31.2025 -21.6127 2.75979 -6.33432 -50.8749 16.4731 -46.6112 -32.0252 -16.8 -35.1998 9.13506 8.39886 -15.4854 27.8834 5.15208 10.9477 34.3611 2.96726 27.626 -7.82072 27.2393 63.707 -30.9413 10.7839 -8.81796 10.0817 -39.5607 0.527227 0.337209 32.0281 -0.601834 -0.628125 -12.3906 0.0152591 -1.29642e-009 8.75234e-006 -1.46973e-008 
-30.4953 98.7532 80.7989 -0.798817 -0.101858 -144.991 -25.8347 -19.0175 -50.9506 -1.22383 47.7147 -14.0342 4.70012 -17.1718 0.163828 0.0462048 0.000530889 0.662642 13.0676 27.3279 -2.42397 -7.67676 0.214021 1.49224 3.03785 -19.3375 -34.354 -21.5582 2.74601 -6.30376 -50.8077 17.2043 -44.3296 -34.2289 -22.8071 -34.4556 10.5162 8.1833 -15.0272 28.2414 5.3621 11.4066 34.4874 7.42563 27.9077 -10.599 29.2512 60.8351 -34.0369 10.7626 -8.40458 8.50858 -39.3329 1.95483 0.480278 37.3742 2.60998 -1.35056 -11.1327 0.0142189 -1.29642e-009 8.75234e-006 -1.46973e-008 
-29.6517 100.277 81.8788 -0.475875 -0.234797 -143.416 -23.8053 -17.9331 -51.2575 -1.16668 42.7593 -15.1625 4.34235 -15.2474 0.0702291 0.0462048 0.000530889 0.662642 13.5335 26.6583 -1.44944 -8.20248 0.406921 2.70509 3.48005 -17.6533 -37.0405 -21.8155 2.7617 -6.2752 -51.3043 16.1617 -40.2251 -36.4027 -24.4535 -35.6955 12.2507 7.86937 -15.0628 28.2776 5.41371 11.539 35.5021 11.2614 28.3208 -11.8565 30.3708 59.3394 -34.6122 10.3306 -6.88572 7.70398 -37.7829 3.18225 0.642616 44.8332 4.29042 -1.83909 -8.828 0.0167397 -1.29642e-009 8.75234e-006 -1.46973e-008 
-29.1577 101.687 82.8486 -0.319957 -0.232134 -142.06 -21.7143 -16.6866 -50.4336 -1.14852 38.0466 -16.8414 4.60779 -14.2414 0.0538256 0.0462048 0.000530889 0.662642 14.0591 25.7661 -0.613488 -8.85621 0.737763 3.85879 4.15558 -15.5808 -39.1618 -22.0503 2.74474 -6.14004 -51.4969 13.7781 -34.5028 -38.362 -21.5848 -38.4567 13.9792 7.57987 -14.8634 27.8977 5.32676 11.449 37.6355 14.5894 28.8064 -12.7325 31.1311 58.5615 -33.6783 9.96494 -5.67312 6.80308 -34.5804 3.9208 0.942736 52.187 7.13671 -0.042295 -9.38292 0.0461833 -1.29642e-009 8.75234e-006 -1.46973e-008 
-28.9323 102.861 83.6366 -0.482706 -0.164833 -141.001 -19.9648 -15.3769 -48.6634 -1.1781 33.8307 -19.083 5.43738 -13.0921 0.0528789 0.0462048 0.000530889 0.662642 14.0376 25.0176 0.232598 -9.53849 0.695141 4.93904 5.38792 -12.7367 -40.7104 -22.2929 2.68794 -5.86624 -50.7038 10.5282 -27.4795 -39.5079 -15.331 -42.2646 15.4384 7.31143 -14.9059 27.6839 5.28571 11.4203 39.9911 17.5442 28.9967 -13.7166 31.8204 58.342 -31.94 9.70154 -4.71875 6.15807 -29.8226 5.10388 1.29908 57.7861 11.3863 2.18946 -10.1632 0.0863902 -1.29642e-009 8.75234e-006 -1.46973e-008 
-29.0368 103.209 84.3752 -0.427467 0.239817 -140.375 -18.9912 -14.8671 -46.5685 -1.23936 31.7862 -21.168 6.28875 -10.7918 -0.0186633 0.0462048 0.000530889 0.662642 14.2625 23.5532 1.35188 -9.87189 1.32433 6.21885 6.8802 -9.43249 -42.0012 -22.5819 2.62403 -5.5584 -48.9315 6.7601 -20.2424 -39.3321 -7.33177 -46.8847 16.9023 6.98642 -15.3309 27.8537 5.30723 11.4117 41.7881 19.7298 29.0327 -14.3063 32.0816 58.6986 -29.3688 9.25865 -2.86285 6.81486 -23.5336 6.22266 1.52338 60.2562 13.5983 0.728913 -7.25318 0.0565574 -1.29642e-009 8.75234e-006 -1.46973e-008 
-29.3161 102.504 85.3539 0.0211043 0.990796 -139.849 -19.4103 -16.0796 -44.4851 -1.30212 33.7899 -22.1618 6.33885 -7.9956 -0.152757 0.0462048 0.000530889 0.662642 15.3658 21.3129 2.49498 -9.96649 3.12988 7.61791 7.91579 -6.51619 -43.2487 -22.5549 2.5036 -5.15084 -46.6015 2.81428 -13.6784 -38.3089 0.884955 -52.6251 18.563 6.69482 -15.2375 27.4874 5.17056 11.1652 43.3679 21.4135 29.8996 -13.9214 31.7201 59.0588 -26.0597 8.75373 -0.232003 8.55337 -15.7547 6.04036 1.40094 58.0872 11.2793 -5.85662 -3.97999 0.188624 -1.29642e-009 8.75234e-006 -1.46973e-008 
-29.472 100.993 86.6297 -0.174077 1.63501 -139.24 -22.266 -19.0843 -42.3244 -1.32907 40.3985 -21.0854 5.22032 -6.28341 -0.22657 0.0462048 0.000530889 0.662642 15.8328 20.2937 3.37922 -9.89715 4.37272 8.63576 7.86998 -4.82426 -44.3631 -21.8401 2.25346 -4.47248 -43.6686 -0.850089 -7.42488 -37.4347 8.4548 -59.7941 19.8783 6.6146 -14.2697 25.6516 4.7579 10.694 45.02 23.8881 32.6882 -12.5937 31.0154 58.6628 -22.8651 8.47724 1.96475 9.71207 -7.37981 5.17281 0.919168 51.9699 6.38214 -14.0696 -8.17753 -0.100182 -1.29642e-009 8.75234e-006 -1.46973e-008 
-29.2207 98.6726 88.1559 -1.77759 1.83834 -138.387 -28.0398 -23.4431 -40.6572 -1.39287 50.323 -17.5337 3.74341 -6.37032 -0.20693 0.0462048 0.000530889 0.662642 14.1784 22.016 4.00774 -9.17006 3.59583 8.9959 6.70302 -4.92517 -45.4715 -20.7519 1.94863 -3.65761 -39.479 -3.69141 -1.10531 -36.9107 14.9516 -67.7797 20.3138 6.72541 -13.1861 23.022 4.27003 10.2596 45.2001 27.4597 37.9315 -10.7397 30.1312 57.7024 -20.7271 8.40717 3.1879 9.16878 -0.776835 4.9744 0.465875 46.2162 1.51121 -19.3878 -20.7605 -2.13418 -1.29642e-009 8.75234e-006 -1.46973e-008 
